<svg xmlns="http://www.w3.org/2000/svg" viewBox="0 0 1024 1024" version="1.1"><path d="M842.666667 586.666667a42.666667 42.666667 0 0 1 42.666666 42.666666v213.333334a42.666667 42.666667 0 0 1-42.666666 42.666666h-213.333334a42.666667 42.666667 0 0 1-42.666666-42.666666v-213.333334a42.666667 42.666667 0 0 1 42.666666-42.666666h213.333334zM736 170.666667v117.333333h-64V234.666667H490.666667v565.312l53.333333 0.021333v42.666667c0 7.381333 0.938667 14.506667 2.688 21.333333H352v-64l74.666667-0.021333V234.666667h-192v53.333333H170.666667V170.666667h565.333333z m85.333333 480h-170.666666v170.666666h170.666666v-170.666666z" p-id="28585"></path></svg>