<svg xmlns="http://www.w3.org/2000/svg" viewBox="0 0 1024 1024" version="1.1"><path d="M810.666667 149.333333a64 64 0 0 1 64 64v597.333334a64 64 0 0 1-64 64H213.333333a64 64 0 0 1-64-64V213.333333a64 64 0 0 1 64-64h597.333334z m0 64H213.333333v597.333334h597.333334V213.333333zM373.333333 640a53.333333 53.333333 0 1 1 0 106.666667 53.333333 53.333333 0 0 1 0-106.666667zM341.333333 480c121.685333 0 220.714667 97.024 223.914667 217.941333L565.333333 704h-64a160 160 0 0 0-154.816-159.914667L341.333333 544v-64z m21.333334-192c215.573333 0 390.784 172.842667 394.602666 387.498667L757.333333 682.666667h-64c0-180.373333-144.426667-326.997333-323.925333-330.602667L362.666667 352v-64z" p-id="29183"></path></svg>