<svg xmlns="http://www.w3.org/2000/svg" viewBox="0 0 1024 1024" version="1.1"><path d="M746.666667 448a64 64 0 0 1 64 64v298.666667a64 64 0 0 1-64 64H277.333333a64 64 0 0 1-64-64V512a64 64 0 0 1 64-64h469.333334z m0 64H277.333333v298.666667h469.333334V512zM623.850667 130.133333l126.933333 126.933334a64 64 0 0 1 0 90.517333L692.992 405.333333h-90.517333l103.04-102.997333-126.933334-126.933333L364.8 389.162667l16.149333 16.170666h-78.08c-5.546667-21.226667 0-44.757333 16.661334-61.418666L533.333333 130.154667a64 64 0 0 1 90.517334 0zM533.333333 298.666667a42.666667 42.666667 0 1 1 0 85.333333 42.666667 42.666667 0 0 1 0-85.333333z" p-id="28815"></path></svg>