<svg xmlns="http://www.w3.org/2000/svg" viewBox="0 0 1024 1024" version="1.1"><path d="M810.666667 213.333333a64 64 0 0 1 64 64v469.333334a64 64 0 0 1-64 64H213.333333a64 64 0 0 1-64-64V277.333333a64 64 0 0 1 64-64h597.333334z m0 64H213.333333v469.333334h597.333334V277.333333z m-345.856 74.986667l9.045333 63.36-11.477333 1.621333 1.066666 1.557334-26.56 17.856-5.418666 3.882666c-27.84 21.098667-44.373333 53.077333-44.373334 87.637334 0 49.536 34.154667 93.013333 83.477334 107.178666l30.762666 8.810667-17.642666 61.525333-30.762667-8.832c-76.266667-21.866667-129.834667-90.048-129.834667-168.682666 0-34.517333 10.325333-67.349333 28.778667-95.146667l-27.349333 3.925333-9.045334-63.36 149.333334-21.333333z m67.925333-7.893333l30.762667 8.810666c76.266667 21.888 129.834667 90.069333 129.834666 168.704a171.541333 171.541333 0 0 1-26.112 91.008l32.256-4.629333 9.045334 63.36-149.333334 21.333333-9.045333-63.36 6.677333-0.96 22.698667-15.253333 5.418667-3.861333c27.861333-21.12 44.394667-53.077333 44.394666-87.637334 0-49.536-34.176-93.013333-83.498666-107.178666l-30.741334-8.832 17.642667-61.504z" p-id="28769"></path></svg>