<svg xmlns="http://www.w3.org/2000/svg" viewBox="0 0 1024 1024" version="1.1"><path d="M746.666667 149.333333a64 64 0 0 1 64 64v597.333334a64 64 0 0 1-64 64H277.333333a64 64 0 0 1-64-64V213.333333a64 64 0 0 1 64-64h469.333334z m0 64H277.333333v597.333334h469.333334V213.333333z m-106.666667 490.666667v64H384v-64h256z m-85.333333-448v37.205333c9.770667 1.984 19.946667 4.565333 30.506666 7.744l-18.346666 61.290667c-62.016-18.581333-82.56-12.650667-85.376 9.706667-0.981333 7.936 10.666667 18.133333 48.576 35.84l6.613333 3.093333 8.277333 3.968c41.728 20.650667 63.082667 42.112 63.082667 82.005333 0 37.930667-21.76 68.394667-53.333333 81.962667V618.666667h-64v-35.413334a119.637333 119.637333 0 0 1-14.890667-4.778666c-9.002667-3.562667-21.290667-9.6-37.12-18.282667l-11.093333-6.165333-17.002667-9.749334 32.213333-55.317333c20.074667 11.690667 35.754667 20.266667 46.592 25.514667l5.418667 2.56 4.458667 1.877333c26.090667 10.282667 44.757333-2.218667 44.757333-22.058667 0-8.341333-7.146667-15.018667-31.68-26.666666l-15.317333-7.210667c-58.602667-28.096-84.842667-52.757333-79.04-98.986667 5.589333-44.736 31.637333-68.949333 72.704-74.496V256h64z" p-id="26883"></path></svg>