<svg xmlns="http://www.w3.org/2000/svg" viewBox="0 0 1024 1024" version="1.1"><path d="M690.944 624.725333l9.984 9.813334 3.072 2.944 8.533333-8.256 4.522667-4.501334a91.498667 91.498667 0 0 1 130.56 0 94.378667 94.378667 0 0 1 1.002667 131.221334L704 896l-144.64-140.032a94.4 94.4 0 0 1 1.024-131.242667 91.498667 91.498667 0 0 1 130.56 0zM365.162667 597.973333c18.666667 11.690667 38.826667 21.205333 60.138666 28.202667L267.157333 810.666667H554.666667v64H267.157333a64 64 0 0 1-48.597333-105.642667l146.602667-171.050667z m240.746666 71.722667a30.4 30.4 0 0 0-0.896 41.365333L704 806.912l98.986667-95.872 1.962666-2.410667a30.442667 30.442667 0 0 0-2.858666-38.933333 27.498667 27.498667 0 0 0-39.488 0l-7.978667 7.893333L704 725.952l-50.624-48.362667-7.978667-7.893333a27.498667 27.498667 0 0 0-39.466666 0zM512 149.333333c117.824 0 213.333333 95.509333 213.333333 213.333334s-95.509333 213.333333-213.333333 213.333333-213.333333-95.509333-213.333333-213.333333S394.176 149.333333 512 149.333333z m0 64a149.333333 149.333333 0 1 0 0 298.666667 149.333333 149.333333 0 0 0 0-298.666667z" p-id="26469"></path></svg>