<svg xmlns="http://www.w3.org/2000/svg" viewBox="0 0 1024 1024" version="1.1"><path d="M521.2 429.6c47.6-81.8 96-143.2 182.8-192.8 16.6-9.6 42.4-16 45.6-17.8C581.4 167.4 512 64 512 64s-69.4 103.4-241 153c11.6 6.8 33 13 61.4 27.4 69 34.8 125 102.6 188.8 185.2zM492.6 506.8C373.4 322.4 262.8 253.6 96 253.6c108.4 157.2 104 349.2 104 430.8 0 152.2 139.6 275.6 312 275.6 115.2 0 215.8-55.2 270-137.4-71-55.2-170.2-131.4-289.4-315.8zM928 253.6s-110.4-4.6-170.4 30.8c-86 51-148.8 122.6-190.8 206.4 77.6 104 146 175.8 190.8 218.8 21.4 20.4 39.6 36.4 55 49 7.4-23.6 11.6-48.6 11.6-74.4-0.2-81.6-34.8-228.2 103.8-430.6z" p-id="13247"></path></svg>