<svg xmlns="http://www.w3.org/2000/svg" viewBox="0 0 1024 1024" version="1.1"><path d="M278 800s-46 50.6-46 81.4c0 25.6 20.6 46.6 46 46.6s46-21 46-46.6c0-30.8-46-81.4-46-81.4zM434 736s-46 50.6-46 81.4c0 25.6 20.8 46.6 46 46.6 25.4 0 46-21 46-46.6 0-30.8-46-81.4-46-81.4zM590 800s-46 50.6-46 81.4c0 25.6 20.6 46.6 46 46.6 25.2 0 46-21 46-46.6 0-30.8-46-81.4-46-81.4zM746 736s-46 50.6-46 81.4c0 25.6 20.8 46.6 46 46.6 25.4 0 46-21 46-46.6 0-30.8-46-81.4-46-81.4zM786.4 322.4C761 193.2 647.8 96 512 96c-79.4 0-152 28-201.8 90.8 68.6 5.2 132.2 30.4 181.4 79.6 36.4 36.4 62 81 74.8 129.6h-67c-30.6-87.4-112-150-211.4-150-12 0-28.6 1.4-41.2 4C140 272 64 360.8 64 471 64 595.2 158.8 704 282.4 704h485.4c103 0 192.4-92 192.4-195.6-0.2-98.8-76.8-179.2-173.8-186z" p-id="12414"></path></svg>