<svg xmlns="http://www.w3.org/2000/svg" viewBox="0 0 1024 1024" version="1.1"><path d="M739.6 320c-106.8 0-192.4 85.6-192.4 192 0 47.2 15.8 89 43.8 122.2h-157.6c28-33.2 43.8-75 43.8-122.2 0-106.4-85.8-192-192.4-192S92 405.6 92 512s85.8 192 192.4 192h455c106.8 0 192.4-85.6 192.4-192s-85.6-192-192.2-192zM284.4 634.2C216.2 634.2 162 580 162 512s54.2-122.2 122.4-122.2 122.4 54.2 122.4 122.2-54 122.2-122.4 122.2z m455.2 0c-68.2 0-122.4-54.2-122.4-122.2s54.2-122.2 122.4-122.2S862 444 862 512s-54.2 122.2-122.4 122.2z" p-id="12460"></path></svg>