<svg xmlns="http://www.w3.org/2000/svg" viewBox="0 0 1024 1024" version="1.1"><path d="M512 64c-141.4 0-256 114.6-256 256s114.6 256 256 256 256-114.6 256-256S653.4 64 512 64z m0 416c-88.4 0-160-71.6-160-160s71.6-160 160-160 160 71.6 160 160-71.6 160-160 160zM387.4 614.8c-38.2-16.2-72.4-39.2-101.6-68.6-2.8-2.8-5.6-5.6-8.2-8.6L128 800h192l96 160 96-211.6 51-112.4c-16.8 2.6-33.8 4-51 4-43.2 0-85-8.4-124.6-25.2zM746.6 537.8c-2.6 2.8-5.4 5.8-8.2 8.6-29.2 29.2-63.4 52.4-101.4 68.4L588 722.4l-43.8 96.8L608 960l96-160h192l-149.4-262.2z" p-id="13106"></path></svg>