<svg xmlns="http://www.w3.org/2000/svg" viewBox="0 0 1024 1024" version="1.1"><path d="M922.8 597l-16.6-61.8-176 47.2-120.8-69.8 120.8-69.8 176 47.2 16.6-61.8-114.2-30.6 115.4-66.6-48-83-113.2 65.4 30.6-114.2-61.8-16.6-47.2 176-124.4 71.8v-142.2l129-128.8-45.4-45.2L560 197.8V64h-96v131.2l-83.4-83.4-45.2 45.2 128.6 128.8v142.8l-121.4-70-47.2-176-61.8 16.6 30.6 114.2-115.4-66.8-48 83.2 113.4 65.4L100 425.8l16.6 61.8 175.8-47.2 125.2 72.2-125.2 72.4-175.8-47.2-16.6 61.8 114.2 30.6-113.4 65.4 48 83 115.4-66.6-30.6 114 61.8 16.6 47.2-175.8 121.4-70.2v141.8l-128.6 128.8 45.2 45.2 83.4-83.6V960h96v-133.6l83.8 83.4 45-45.2L560 736v-141.2l124.4 72 47.2 175.8 61.8-16.6-30.6-114 113.2 65.4 48-83.2-115.4-66.6z" p-id="13799"></path></svg>