<svg xmlns="http://www.w3.org/2000/svg" viewBox="0 0 1024 1024" version="1.1"><path d="M512 576c-90.886 0-167.35 52.152-204.41 128h408.82c-37.06-75.848-113.524-128-204.41-128z" p-id="13199"></path><path d="M512 96C281.126 96 96 283.2 96 512s185.126 416 416 416 416-187.2 416-416S740.802 96 512 96z m0 748.8c-183.036 0-332.808-149.766-332.808-332.8 0-183.036 149.774-332.8 332.808-332.8S844.808 328.964 844.808 512 695.036 844.8 512 844.8z" p-id="13200"></path><path d="M657.6 470.4c35.366 0 62.402-27.036 62.402-62.4s-27.038-62.4-62.402-62.4c-35.364 0-62.4 27.036-62.4 62.4s27.036 62.4 62.4 62.4zM366.4 470.4c35.364 0 62.4-27.036 62.4-62.4s-27.038-62.4-62.4-62.4c-35.366 0-62.402 27.036-62.402 62.4s27.038 62.4 62.402 62.4z" p-id="13201"></path></svg>