<svg xmlns="http://www.w3.org/2000/svg" viewBox="0 0 1024 1024" version="1.1"><path d="M464 613.334h96V352h-96v261.334z" p-id="14536"></path><path d="M815.34 340.542l61.572-61.572-67.884-67.882-61.57 61.572C682.434 222.114 600.738 192 512 192 299.922 192 128 363.922 128 576s171.922 384 384 384 384-171.922 384-384c0-88.738-30.114-170.434-80.66-235.458z m-91.208 447.59C667.468 844.796 592.132 876 512 876s-155.47-31.204-212.132-87.868C243.204 731.47 212 656.132 212 576s31.204-155.47 87.868-212.132C356.53 307.204 431.868 276 512 276s155.468 31.204 212.132 87.868C780.796 420.53 812 495.868 812 576s-31.204 155.47-87.868 212.132zM384 64h256v96H384z" p-id="14537"></path></svg>