<svg xmlns="http://www.w3.org/2000/svg" viewBox="0 0 1024 1024" version="1.1"><path d="M675.018 610.744h-35.002l-13.142-10.972c41.582-50.464 67.844-114.108 67.844-186.514C694.716 255.264 567.792 128 410.27 128 254.904 128 128 255.264 128 413.258s126.904 285.256 284.45 285.256c70.022 0 135.662-26.334 185.982-68.016l13.122 10.974v35.102L830.36 896 896 830.172 675.018 610.744z m-262.568 0c-109.404 0-196.926-87.774-196.926-197.486 0-109.716 87.522-197.484 196.926-197.484 109.4 0 196.924 87.768 196.924 197.484 0 109.712-87.524 197.486-196.924 197.486z" p-id="13477"></path></svg>