<svg xmlns="http://www.w3.org/2000/svg" viewBox="0 0 1024 1024" version="1.1"><path d="M256 832h512v96H256zM512 576c35.4 0 64-28.6 64-64s-28.6-64-64-64c-6 0-12 0.8-17.6 2.4l-133.4-97.4-8 7 97.8 133.4c-1.8 5.8-2.8 12-2.8 18.6 0 35.4 28.6 64 64 64z" p-id="14075"></path><path d="M512 96C282.2 96 96 282.2 96 512c0 96.6 33 185.4 88.2 256h117.6l8-8 44.2-44.2-45.8-45.8-44.2 44c-39.8-48.6-64.2-108-70.4-170H256v-64H193.6c6.2-62 30.6-121.4 70.4-170l44.2 44 45.8-45.8-44-44.2c48.6-39.8 108-64.2 170-70.4V256h64V193.6c62 6.2 121.4 30.6 170 70.4l-44 44.2 45.8 45.8 44.2-44c39.8 48.6 64.2 108 70.4 170H768v64h62.4c-6.2 62-30.6 121.4-70.4 170l-44.2-44-45.8 45.8 44.2 44.2 8 8h117.6c55.2-70.6 88.2-159.4 88.2-256 0-229.8-186.2-416-416-416z" p-id="14076"></path></svg>