<svg xmlns="http://www.w3.org/2000/svg" viewBox="0 0 1024 1024" version="1.1"><path d="M512 186.18V64l-160 162.908 160 162.912v-122.186c131.992 0 240 109.964 240 244.366 0 40.726-10 79.428-28.008 114.032L782 685.094c31.992-50.914 50-109.976 50-173.094 0-179.198-144.004-325.82-320-325.82z m0 570.188c-132.002 0-240-109.976-240-244.368 0-40.726 10-79.418 27.998-114.04L242 338.908C209.998 387.78 192 448.872 192 512c0 179.198 144.004 325.82 320 325.82V960l160-162.906-160-162.914v122.188z" p-id="14444"></path></svg>