<svg xmlns="http://www.w3.org/2000/svg" viewBox="0 0 1024 1024" version="1.1"><path d="M336 432h189.8c29 29.6 69.4 48 114.2 48 88.4 0 160-71.6 160-160s-71.6-160-160-160c-44.8 0-85.2 18.4-114.2 48H336c-61.6 0-112 50.4-112 112s50.4 112 112 112z m-33.8-145.8c9.2-9.2 21.2-14.2 33.8-14.2h151.4c-4.8 15.2-7.4 31.2-7.4 48s2.6 32.8 7.4 48H336c-12.6 0-24.8-5-33.8-14.2-9.2-9.2-14.2-21.2-14.2-33.8s5-24.8 14.2-33.8zM688 592h-189.8c-29-29.6-69.4-48-114.2-48-88.4 0-160 71.6-160 160s71.6 160 160 160c44.8 0 85.2-18.4 114.2-48H688c61.6 0 112-50.4 112-112s-50.4-112-112-112z m33.8 145.8c-9.2 9.2-21.2 14.2-33.8 14.2h-151.4c4.8-15.2 7.4-31.2 7.4-48s-2.6-32.8-7.4-48H688c12.6 0 24.8 5 33.8 14.2 9.2 9.2 14.2 21.2 14.2 33.8s-5 24.8-14.2 33.8z" p-id="14352"></path></svg>