<svg xmlns="http://www.w3.org/2000/svg" viewBox="0 0 1024 1024" version="1.1"><path d="M512 96c-187.728 0-352 21.336-352 170.668v426.664c0 83.208 66.124 149.332 149.334 149.332L256 896v32h512v-32l-53.334-53.336c83.208 0 149.334-66.124 149.334-149.332V266.668C864 117.336 699.728 96 512 96z m-192 672c-36.272 0-64-27.73-64-64 0-36.274 27.728-64 64-64s64 27.726 64 64c0 36.27-27.728 64-64 64z m160-288H256v-192h224v192z m224 288c-36.272 0-64-27.73-64-64 0-36.274 27.728-64 64-64s64 27.726 64 64c0 36.27-27.728 64-64 64z m64-288H544v-192h224v192z" p-id="14214"></path></svg>