<svg xmlns="http://www.w3.org/2000/svg" viewBox="0 0 1024 1024" version="1.1"><path d="M512 96c-176 0-352 21.8-352 175.2v416c0 84.6 69 153.2 154 153.2L248 906v22h98.2l88-87.6H600l88 87.6h88v-21.8l-66-65.6c85 0 154-68.8 154-153.2v-416C864 117.8 706.4 96 512 96z m-198 656.8c-36.6 0-66-29.4-66-65.6s29.4-65.6 66-65.6 66 29.4 66 65.6-29.4 65.6-66 65.6z m154-306.4H248v-175.2h220v175.2z m88 0v-175.2h220v175.2H556z m154 306.4c-36.6 0-66-29.4-66-65.6s29.4-65.6 66-65.6 66 29.4 66 65.6-29.4 65.6-66 65.6z" p-id="15000"></path></svg>