<svg xmlns="http://www.w3.org/2000/svg" viewBox="0 0 1024 1024" version="1.1"><path d="M465.8 743.2c0 25.4 20.8 46.2 46.2 46.2s46.2-20.8 46.2-46.2c0-25.4-20.8-46.2-46.2-46.2s-46.2 20.6-46.2 46.2z m0-647.2v184.8h92.4V192.2c156.6 22.6 277.4 156.6 277.4 319.8 0 178.8-144.6 323.6-323.6 323.6S188.4 690.8 188.4 512c0-77.6 27.2-148.8 73-204.4L512 558.2l65.2-65.2L262.8 178.8v1C161.6 255.4 96 375.6 96 512c0 229.8 185.8 416 416 416 229.8 0 416-186.2 416-416S741.8 96 512 96h-46.2z m323.6 416c0-25.4-20.8-46.2-46.2-46.2-25.4 0-46.2 20.8-46.2 46.2s20.8 46.2 46.2 46.2c25.4 0 46.2-20.8 46.2-46.2z m-554.8 0c0 25.4 20.8 46.2 46.2 46.2s46.2-20.8 46.2-46.2-20.8-46.2-46.2-46.2-46.2 20.8-46.2 46.2z" p-id="14907"></path></svg>