<svg xmlns="http://www.w3.org/2000/svg" viewBox="0 0 1024 1024" version="1.1"><path d="M810.6 64H213.4C166.4 64 128 102.4 128 149.4v725.4c0 47 38.4 85.4 85.4 85.4h597.4c47 0 85.4-38.4 85.4-85.4V149.4C896 102.4 857.6 64 810.6 64z m-8 810.6H221.4c-4.4 0-8-3.6-8-8V157.4c0-4.4 3.6-8 8-8h581.4c4.4 0 8 3.6 8 8v709.4c-0.2 4.2-3.8 7.8-8.2 7.8z" p-id="14953"></path><path d="M290 388v408c0 2.2 1.8 4 4 4h436c2.2 0 4-1.8 4-4V388c0-2.2-1.8-4-4-4H294c-2.2 0-4 1.8-4 4zM290 229.4v68c0 2.2 1.8 4 4 4h342c2.2 0 4-1.8 4-4v-68c0-2.2-1.8-4-4-4H294c-2.2 0-4 1.8-4 4z" p-id="14954"></path></svg>