<svg xmlns="http://www.w3.org/2000/svg" viewBox="0 0 1024 1024" version="1.1"><path d="M767.6 184.4C697 129 608.2 96 512 96c-96 0-184.6 33-255.2 88 83.2 89.6 128.6 206 128 328.6-0.6 122-46.6 237.2-129.8 325.8 70.8 56 160.2 89.6 257 89.6 97 0 186.6-33.6 257.6-90-83-88.6-129-203.6-129.6-325.4-0.6-122.4 44.6-238.6 127.6-328.2z" p-id="14583"></path><path d="M706.2 510.2c0 53.8 10.2 106 30.2 155.6 19.2 47.2 46.6 89.8 81.6 127.2 68.2-74.2 110-173 110-281 0-109-42.4-208.4-111.6-282.8-34.2 37-61.2 79.2-80 125.4-20 49.6-30.2 102-30.2 155.6zM318.6 510.2c0-53.8-10.2-106-30.2-155.6-18.8-46.4-45.8-88.8-80.4-125.8-69.4 74.4-112 174-112 283.2 0 108.4 42 207.2 110.4 281.4 35.2-37.4 62.8-80.2 82-127.6 20-49.4 30.2-101.8 30.2-155.6z" p-id="14584"></path></svg>