<svg xmlns="http://www.w3.org/2000/svg" viewBox="0 0 1024 1024" version="1.1"><path d="M811 512c0 45.434-9.766 88.724-27.206 127.71l63.76 63.76C878.566 646.66 896 581.306 896 512c0-186.512-128-344.508-298-384v89.956C722 255.264 811 373.764 811 512zM512 160.916l-102.042 104.96L512 367.914zM841.684 793.77L182.232 134.314l-48 48 180.998 180.826-16.56 20.86H128v256h170.668L512 863.086V560l189.83 189.372C671.59 774.886 636 794.426 598 806.044V896c62-14.344 117.992-44.326 164.63-85.618l79.22 79.386 48-48.086-48.004-48.078-0.162 0.166z" p-id="15737"></path><path d="M704.376 512c0-76.798-42.376-144.814-106.376-177.726v119.64l101.602 101.602A201.192 201.192 0 0 0 704.376 512z" p-id="15738"></path></svg>