<svg xmlns="http://www.w3.org/2000/svg" viewBox="0 0 1024 1024" version="1.1"><path d="M512 457.438c-45.758 0-83.194 37.058-83.194 82.36 0 45.304 37.436 82.364 83.194 82.364 45.756 0 83.194-37.058 83.194-82.364 0-45.302-37.438-82.36-83.194-82.36z m249.6 82.358c0-135.892-112.326-247.078-249.6-247.078s-249.6 111.186-249.6 247.078c0 90.606 49.922 170.894 124.792 214.144l41.614-72.064c-49.944-28.834-83.208-80.306-83.208-142.08 0-90.59 74.866-164.716 166.402-164.716 91.542 0 166.402 74.126 166.402 164.716 0 61.774-33.266 113.246-83.208 142.08l41.614 72.064c74.866-43.248 124.792-123.538 124.792-214.144zM512 128C283.194 128 96 313.308 96 539.796 96 692.17 179.184 823.936 304 896l41.598-72.064c-99.838-57.648-166.414-162.648-166.414-284.138 0-181.186 149.782-329.436 332.816-329.436 183.034 0 332.812 148.25 332.812 329.436 0 121.49-66.568 228.542-166.41 284.138L720 896c124.812-72.064 208-203.83 208-356.204C928 313.308 740.806 128 512 128z" p-id="15968"></path></svg>