<svg xmlns="http://www.w3.org/2000/svg" viewBox="0 0 1024 1024" version="1.1"><path d="M380.8 297.2L322 505.8c-12.6 45.6 41.4 63.4 54.6 20.6l52.6-192.4h14.8l-90.4 338H438v254c0 46 64 46 64 0V672h20v254c0 46 62 46 62 0V672h86.8l-92.4-338h16.8l52.6 192.4c13 43.8 66.6 25 54.6-20.4l-58.8-208.8c-8-23.6-36.4-65.2-84-67.2h-94.6c-49.2 2-77.4 43.2-84.2 67.2zM585.2 138.4c0-41.2-32.8-74.6-73.2-74.6-40.4 0-73.2 33.4-73.2 74.6 0 41.2 32.8 74.6 73.2 74.6 40.4 0 73.2-33.4 73.2-74.6z" p-id="16014"></path></svg>