<svg xmlns="http://www.w3.org/2000/svg" viewBox="0 0 1024 1024" version="1.1"><path d="M405.4 682.6V341.4c0-47 38-85.4 85.4-85.4h394v-42.6c0-47-37.8-85.4-84.6-85.4H184c-47.4 0-88 37-88 84v600c0 47 40.6 84 88 84h616c47 0 84.6-38.4 84.6-85.4V768h-394c-47.2 0-85.2-38.4-85.2-85.4z" p-id="15690"></path><path d="M490 372v280c0 17.6 14.4 32 32 32h374c17.6 0 32-14.4 32-32V372c0-17.6-14.4-32-32-32H522c-17.6 0-32 14.4-32 32z m154.2 203.8c-38.6 2.4-70.4-29.4-68-68 2-31.8 27.8-57.6 59.8-59.8 38.6-2.4 70.4 29.4 68 68-2.2 32-28 57.8-59.8 59.8z" p-id="15691"></path></svg>